<?xml version="1.0" encoding="UTF-8"?>
<svg width="16px" height="16px" viewBox="0 0 16 16" version="1.1" xmlns="http://www.w3.org/2000/svg" xmlns:xlink="http://www.w3.org/1999/xlink">
    <title>切片</title>
    <g id="首页" stroke="none" stroke-width="1" fill="none" fill-rule="evenodd">
        <g id="专栏（1440）" transform="translate(-1013.000000, -502.000000)" fill="#B1B4C5" fill-rule="nonzero">
            <g id="编组-5" transform="translate(120.000000, 402.000000)">
                <g id="编组-4" transform="translate(20.000000, 0.000000)">
                    <g id="编组-9" transform="translate(873.000000, 98.000000)">
                        <g id="icon/线性/浏览量" transform="translate(0.000000, 2.000000)">
                            <g id="预览" transform="translate(1.250000, 3.250000)">
                                <path d="M6.74949362,0 C9.24027101,0 11.4708985,1.28315143 12.9948906,3.31296044 C13.6682197,4.20948158 13.6682197,5.54140518 12.9957908,6.43703956 C11.4708985,8.46684857 9.24117119,9.75 6.7503938,9.75 C4.25961641,9.75 2.02898888,8.46684857 0.504996789,6.43703956 C-0.168332263,5.54140518 -0.168332263,4.20948158 0.504996789,3.31296044 C2.02898888,1.28315143 4.25871624,0 6.74949362,0 Z M6.74949362,1.02631579 C4.67019224,1.02631579 2.72136582,2.08328856 1.33885277,3.92466124 C0.938380006,4.45788093 0.938380006,5.2926463 1.33894775,5.82546524 C2.72119529,7.6664843 4.67085462,8.72368421 6.7503938,8.72368421 C8.82963146,8.72368421 10.7785641,7.66676609 12.1618317,5.82547608 C12.5616578,5.29293203 12.5614891,4.45785654 12.1609397,3.92453476 C10.7786921,2.0835157 8.8290328,1.02631579 6.74949362,1.02631579 Z M6.75399449,1.76909959 C8.49402799,1.76909959 9.90459834,3.15866303 9.90459834,4.87278308 C9.90459834,6.58690314 8.49402799,7.97646658 6.75399449,7.97646658 C5.01396099,7.97646658 3.60339063,6.58690314 3.60339063,4.87278308 C3.60339063,3.15866303 5.01396099,1.76909959 6.75399449,1.76909959 Z M6.75399449,2.79541538 C5.58673569,2.79541538 4.64185217,3.72622723 4.64185217,4.87278308 C4.64185217,6.01933894 5.58673569,6.95015079 6.75399449,6.95015079 C7.92125328,6.95015079 8.8661368,6.01933894 8.8661368,4.87278308 C8.8661368,3.72622723 7.92125328,2.79541538 6.75399449,2.79541538 Z" id="形状结合"></path>
                            </g>
                        </g>
                    </g>
                </g>
            </g>
        </g>
    </g>
</svg>