<svg width="64" height="64" viewBox="0 0 64 64" fill="none" xmlns="http://www.w3.org/2000/svg">
<g id="View">
<g id="&#233;&#162;&#132;&#232;&#167;&#136;">
<path id="&#229;&#189;&#162;&#231;&#138;&#182;&#231;&#187;&#147;&#229;&#144;&#136;" fill-rule="evenodd" clip-rule="evenodd" d="M44.5 32C44.5 25.0964 38.9036 19.5 32 19.5C25.0964 19.5 19.5 25.0964 19.5 32C19.5 38.9036 25.0964 44.5 32 44.5C38.9036 44.5 44.5 38.9036 44.5 32ZM23.6201 32C23.6201 27.3823 27.3689 23.6335 32 23.6335C36.6311 23.6335 40.3799 27.3823 40.3799 32C40.3799 36.6177 36.6311 40.3665 32 40.3665C27.3689 40.3665 23.6201 36.6177 23.6201 32Z" fill="#64698B"/>
<path id="Vector" fill-rule="evenodd" clip-rule="evenodd" d="M9.18535 22.9675C14.9186 16.0614 23.1553 12 31.9999 12C40.8536 12 49.0612 16.0433 54.8155 22.9688C59.0613 28.0923 59.0613 35.9077 54.8144 41.0325C49.0811 47.9386 40.8444 52 31.9999 52C23.1461 52 14.9385 47.9567 9.18424 41.0312C4.9384 35.9077 4.9384 28.0923 9.18535 22.9675ZM51.7372 25.5231C46.7276 19.4937 39.6356 16 31.9999 16C24.3742 16 17.2535 19.5111 12.2641 25.5211C9.24511 29.1642 9.24511 34.8358 12.2625 38.4769C17.2722 44.5063 24.3641 48 31.9999 48C39.6255 48 46.7462 44.4889 51.7356 38.4789C54.7546 34.8358 54.7546 29.1642 51.7372 25.5231Z" fill="#64698B"/>
</g>
</g>
</svg>
