<svg width="64" height="64" viewBox="0 0 64 64" fill="none" xmlns="http://www.w3.org/2000/svg">
<g id="ThumbsUp">
<g id="Thumbs Up">
<g id="Group">
<path id="&#229;&#189;&#162;&#231;&#138;&#182;&#231;&#187;&#147;&#229;&#144;&#136;" fill-rule="evenodd" clip-rule="evenodd" d="M36.7271 6.16109C34.3604 5.94272 32.3824 6.74966 31.8178 9.00795L31.8016 9.0717L31.7792 9.15987L31.7629 9.22423C30.6111 13.7622 29.9421 15.6736 28.5344 17.757C27.0894 19.8778 25.5167 21.35 23.9566 21.9174C22.5542 19.6088 20.0157 18.065 17.1198 18.065H8.104C6.99943 18.065 6.104 18.9605 6.104 20.065V55.9217C6.104 57.0263 6.99943 57.9217 8.104 57.9217H17.1198C20.7196 57.9217 23.7672 55.5363 24.7667 52.2614L28.5597 53.5077C30.5495 54.171 32.6233 54.5118 34.7124 54.5118H47.9649C51.7003 54.5118 54.744 51.5021 54.744 47.7842L54.7357 47.4569L54.714 47.1882L54.7739 47.1528C56.675 45.9389 57.8957 43.8327 57.8957 41.4809L57.8893 41.1825C57.847 40.192 57.5942 39.2422 57.1533 38.3862L57.108 38.3022L57.1462 38.2326C57.6311 37.2987 57.8957 36.2519 57.8957 35.1775L57.8893 34.8792C57.847 33.8886 57.5942 32.9389 57.1533 32.0829L57.108 31.9992L57.1462 31.9293C57.6311 30.9953 57.8957 29.9485 57.8957 28.8742C57.8957 25.2409 54.9856 22.2754 51.3786 22.1509L51.1421 22.1468L44.587 22.1462L44.6195 22.0248C45.1569 19.8938 45.4431 17.9064 45.4147 16.018C45.3576 12.2143 43.9661 9.19601 40.9248 7.45379C39.8566 6.84051 38.1764 6.29483 36.7271 6.16109ZM35.6586 10.153C35.8152 10.1247 36.0566 10.1162 36.3595 10.1442C37.2265 10.2242 38.3547 10.5906 38.935 10.9237C42.016 12.6887 42.0835 17.1889 40.0182 23.5272C39.5971 24.8197 40.5604 26.1468 41.9198 26.1468H51.1424C52.6553 26.1468 53.8957 27.3779 53.8957 28.8742C53.8957 29.5282 53.6416 30.1693 53.1995 30.657C52.508 31.4201 52.5089 32.5835 53.2016 33.3454C53.651 33.8397 53.8957 34.4744 53.8957 35.1775C53.8957 35.8315 53.6416 36.4726 53.1995 36.9604C52.508 37.7234 52.5089 38.8868 53.2016 39.6488C53.651 40.143 53.8957 40.7777 53.8957 41.4809C53.8957 42.7142 53.0595 43.7887 51.8458 44.1267C50.68 44.4514 50.0674 45.7289 50.5441 46.8413C50.6797 47.1578 50.744 47.459 50.744 47.7842C50.744 49.2828 49.5012 50.5118 47.9649 50.5118H34.7124L34.2158 50.5036C32.7271 50.455 31.2498 50.1881 29.8165 49.7103L25.139 48.1732V25.7492L25.1676 25.7405C27.7206 24.8835 29.9219 22.8245 31.8444 20.0028L32.0062 19.7602C33.6493 17.2627 34.4156 15.0321 35.64 10.2083L35.653 10.1532L35.6586 10.153ZM17.1198 53.9217L10.104 53.921V22.065H17.1198C19.3219 22.065 21.1132 23.8563 21.1132 26.0584V49.9284C21.1132 52.1305 19.3219 53.9217 17.1198 53.9217ZM13.6065 47.3817C13.6065 48.4863 14.502 49.3816 15.6065 49.3816C16.7111 49.3816 17.6065 48.4863 17.6065 47.3817C17.6065 46.2772 16.7111 45.3817 15.6065 45.3817C14.502 45.3817 13.6065 46.2772 13.6065 47.3817Z" fill="#64698B"/>
</g>
</g>
</g>
</svg>
